<?xml version="1.0" encoding="UTF-8"?>
<svg width="4px" height="8px" viewBox="0 0 4 8" version="1.1" xmlns="http://www.w3.org/2000/svg" xmlns:xlink="http://www.w3.org/1999/xlink">
    <!-- Generator: Sketch 47.1 (45422) - http://www.bohemiancoding.com/sketch -->
    <title>Double Arrow / Dark</title>
    <desc>Created with Sketch.</desc>
    <defs></defs>
    <g id="Examples" stroke="none" stroke-width="1" fill="none" fill-rule="evenodd">
        <g id="Full-page-Popup" transform="translate(-956.000000, -349.000000)" fill="#627386">
            <g id="Metrics-Comparison" transform="translate(300.000000, 333.000000)">
                <g id="Header">
                    <g id="Double-Arrow-/-Dark" transform="translate(656.000000, 16.000000)">
                        <path d="M0.569891495,2.99673948 L0.569891495,2.99673948 C0.452952616,2.99673948 0.339712709,2.95575193 0.249864975,2.88090485 C0.0376963034,2.70415908 0.00898036472,2.38888163 0.185726131,2.17671296 L0.185726131,2.17671296 L1.61583458,0.459986065 C1.63522678,0.436707342 1.65669471,0.415239413 1.67997343,0.395847221 C1.8921421,0.219101454 2.20741955,0.247817393 2.38416531,0.459986065 L2.38416531,0.459986065 L3.81427376,2.17671296 C3.88912085,2.2665607 3.9301084,2.3798006 3.9301084,2.49673948 C3.9301084,2.77288186 3.70625078,2.99673948 3.4301084,2.99673948 L3.4301084,2.99673948 L0.569891495,2.99673948 Z M3.4301084,4.99534759 C3.54704728,4.99534759 3.66028719,5.03633514 3.75013492,5.11118222 C3.96230359,5.28792799 3.99101953,5.60320543 3.81427376,5.81537411 L3.81427376,5.81537411 L2.38416531,7.532101 C2.36477312,7.55537973 2.34330519,7.57684766 2.32002647,7.59623985 C2.1078578,7.77298561 1.79258035,7.74426968 1.61583458,7.532101 L0.185726131,5.81537411 C0.110879046,5.72552637 0.0698914948,5.61228647 0.0698914948,5.49534759 C0.0698914948,5.21920521 0.29374912,4.99534759 0.569891495,4.99534759 L0.569891495,4.99534759 L3.4301084,4.99534759 Z" id="Combined-Shape"></path>
                    </g>
                </g>
            </g>
        </g>
    </g>
</svg>