<?xml version="1.0" encoding="UTF-8"?>
<svg width="12px" height="12px" viewBox="0 0 12 12" version="1.1" xmlns="http://www.w3.org/2000/svg" xmlns:xlink="http://www.w3.org/1999/xlink">
    <!-- Generator: Sketch 47.1 (45422) - http://www.bohemiancoding.com/sketch -->
    <title>Group</title>
    <desc>Created with Sketch.</desc>
    <defs></defs>
    <g id="Layouts" stroke="none" stroke-width="1" fill="none" fill-rule="evenodd">
        <g id="Header---PE" transform="translate(-1120.000000, -24.000000)">
            <g id="Global-Header">
                <g id="Group-2" transform="translate(1061.000000, 24.000000)">
                    <g id="Group" transform="translate(59.000000, 0.000000)">
                        <rect id="Rectangle-11" fill="white" x="5" y="0" width="2" height="12" rx="1"></rect>
                        <rect id="Rectangle-11" fill="white" transform="translate(6.000000, 6.000000) rotate(-270.000000) translate(-6.000000, -6.000000) " x="5" y="0" width="2" height="12" rx="1"></rect>
                        <rect id="Rectangle-11" fill="white" transform="translate(6.000000, 6.000000) rotate(-225.000000) translate(-6.000000, -6.000000) " x="5" y="0" width="2" height="12" rx="1"></rect>
                        <rect id="Rectangle-11" fill="white" transform="translate(6.000000, 6.000000) rotate(-135.000000) translate(-6.000000, -6.000000) " x="5" y="1.42e-14" width="2" height="12" rx="1"></rect>
                        <path d="M6,10 C3.790861,10 2,8.209139 2,6 C2,3.790861 3.790861,2 6,2 C8.209139,2 10,3.790861 10,6 C10,8.209139 8.209139,10 6,10 Z" id="Oval" fill="white" fill-rule="nonzero"></path>
                        <path d="M6,8 C7.1045695,8 8,7.1045695 8,6 C8,4.8954305 7.1045695,4 6,4 C4.8954305,4 4,4.8954305 4,6 C4,7.1045695 4.8954305,8 6,8 Z" id="Path" fill="#22272E"></path>
                    </g>
                </g>
            </g>
        </g>
    </g>
</svg>
