<?xml version="1.0" encoding="utf-8"?>
<!-- Generator: Adobe Illustrator 21.0.0, SVG Export Plug-In . SVG Version: 6.00 Build 0)  -->
<svg version="1.1" id="Layer_1" xmlns="http://www.w3.org/2000/svg" xmlns:xlink="http://www.w3.org/1999/xlink" x="0px" y="0px"
	 viewBox="0 0 177 117" style="enable-background:new 0 0 177 117;" xml:space="preserve">
<style type="text/css">
	.st0{fill:#F3F4F5;fill-opacity:0.5;stroke:#C4C9CD;stroke-width:2;}
	.st1{opacity:0.8;fill:#DBDFE1;enable-background:new    ;}
	.st2{fill:#FFFFFF;stroke:#C4C9CD;stroke-width:2;}
	.st3{fill:#FFFFFF;stroke:#DBDFE1;}
	.st4{fill:#FFFFFF;stroke:#DBDFE1;stroke-width:2;}
	.st5{fill:#9AA8B1;}
	.st6{fill:#C4C9CD;}
</style>
<path id="Rectangle_34_copy_2" class="st0" d="M2.6,10l149.8-7.8l5,95.9L7.6,105.9L2.6,10z"/>
<rect id="Rectangle_34_copy_3" x="19" y="21" class="st1" width="150" height="96"/>
<rect id="Rectangle_34_copy" x="25" y="16" class="st2" width="150" height="96"/>
<rect x="32" y="23" class="st3" width="136" height="82"/>
<path id="Rectangle_36_copy" class="st4" d="M41,32h33v1H41V32z M126,32h33v1h-33V32z M74,31h1v3h-1V31z M125,31h1v3h-1V31z"/>
<path id="Rectangle_36_copy_2" class="st4" d="M41,95h43v1H41V95z M116,95h43v1h-43V95z M84,94h1v3h-1V94z M115,94h1v3h-1V94z"/>
<path class="st5" d="M94.5,94.1c-0.8,0-1.4,0.5-1.5,1.2c0,0.3,0.1,0.5,0.3,0.7c0.1,0.1,0.1,0.2,0,0.3c0,0,0,0,0,0
	c-0.2,0.2-0.4,0.3-0.6,0.3c-0.4,0-0.7-0.4-0.7-0.8c0.1-0.6,0.4-1.2,0.9-1.5c0.6-0.5,1.4-0.8,2.2-0.9c1.1-1,2.4-1.5,3.9-1.6
	c0.8,0,1.7,0.2,2.4,0.5c0.4,0.2,2.1,0.9,3.2,1.4c0.9,0.5,1.9,0.7,3,0.8c0.6,0.1,1.3-0.3,1.4-0.9c0-0.2-0.1-0.4-0.2-0.6
	c-0.1-0.1-0.1-0.2-0.1-0.3c0-0.4,0.3-0.7,0.6-0.7c0.4,0,0.7,0.4,0.7,0.8c-0.2,0.9-0.8,1.7-1.7,1.9c-0.9,1.2-2.3,1.9-3.8,2
	c-1,0-2-0.3-3-0.7c-0.9-0.3-3.6-1.5-4.7-1.9C96,94.2,95.3,94.1,94.5,94.1L94.5,94.1L94.5,94.1z M98.1,92.5c-0.8,0-1.6,0.4-2,1.1
	c0.8,0,1.7,0.2,2.4,0.6c1.2,0.4,3.4,1.4,4.2,1.7c0.8,0.3,1.7,0.5,2.5,0.5c0.9,0.1,1.7-0.4,2.2-1.1c-1,0.1-2-0.1-2.9-0.5
	c-0.9-0.4-3.4-1.6-4.3-1.9C99.5,92.7,98.8,92.5,98.1,92.5L98.1,92.5L98.1,92.5z"/>
<path id="NUTANIX" class="st6" d="M88.6,34.4v-4c0-0.2-0.2-0.4-0.5-0.4c-0.2,0-0.5,0.2-0.5,0.4v3l-2.5-3.2C85,30.1,84.8,30,84.6,30
	c-0.3,0-0.6,0.2-0.6,0.5v4c0,0.2,0.2,0.4,0.5,0.4c0.3,0,0.5-0.2,0.5-0.4v-3.1l2.6,3.3c0.1,0.1,0.3,0.2,0.5,0.2
	C88.3,35,88.6,34.8,88.6,34.4C88.6,34.4,88.6,34.4,88.6,34.4z M94.3,33v-2.6c0-0.2-0.2-0.4-0.5-0.4c-0.3,0-0.5,0.2-0.5,0.4V33
	c0,0.7-0.7,1.3-1.4,1.3c-0.7,0-1.2-0.6-1.3-1.3v-2.5c0-0.2-0.2-0.4-0.5-0.4c0,0,0,0,0,0c-0.3,0-0.5,0.2-0.5,0.4c0,0,0,0,0,0V33
	c0,1.2,0.8,2,2.3,2S94.3,34.2,94.3,33L94.3,33z M99.3,30.4c0-0.2-0.2-0.4-0.4-0.4c0,0,0,0,0,0h-3.4c-0.2,0-0.4,0.1-0.4,0.4
	c0,0.2,0.1,0.4,0.4,0.4c0,0,0,0,0.1,0h1.2v3.7c0,0.2,0.2,0.4,0.5,0.4c0.3,0,0.5-0.2,0.5-0.4v-3.7h1.2C99.1,30.8,99.3,30.7,99.3,30.4
	L99.3,30.4z M104.1,34.5c0-0.1,0-0.1,0-0.2l-1.7-3.9c-0.1-0.3-0.5-0.5-0.8-0.5c-0.3,0-0.6,0.2-0.7,0.5l-1.7,3.9c0,0,0,0.1,0,0.2
	c0,0.3,0.2,0.5,0.5,0.5c0,0,0,0,0,0c0.2,0,0.4-0.1,0.5-0.3l0.3-0.7h2.4l0.3,0.7c0.1,0.2,0.3,0.3,0.5,0.3
	C103.9,35,104.1,34.8,104.1,34.5L104.1,34.5z M102.6,33.2h-1.9l0.9-2.3L102.6,33.2z M109.5,34.4v-4c0-0.2-0.2-0.4-0.5-0.4
	c-0.2,0-0.5,0.2-0.5,0.4v3l-2.5-3.2c-0.1-0.2-0.3-0.2-0.5-0.2c-0.3,0-0.6,0.2-0.6,0.5v4c0,0.2,0.2,0.4,0.5,0.4
	c0.3,0,0.5-0.2,0.5-0.4v-3.1l2.6,3.3c0.1,0.1,0.3,0.2,0.5,0.2C109.2,35,109.5,34.8,109.5,34.4C109.5,34.4,109.5,34.4,109.5,34.4
	L109.5,34.4z M111.6,34.5v-4.1c0-0.3-0.3-0.4-0.5-0.4c-0.2,0-0.4,0.2-0.4,0.4v4.1c0,0.2,0.2,0.4,0.5,0.4
	C111.4,35,111.6,34.8,111.6,34.5L111.6,34.5z M117,34.5c0-0.1,0-0.2-0.1-0.2l-1.5-1.9l1.4-1.8c0.1-0.1,0.1-0.1,0.1-0.2
	c0-0.2-0.2-0.4-0.5-0.4c-0.1,0-0.3,0.1-0.4,0.2l-1.2,1.6l-1.2-1.6c-0.1-0.1-0.2-0.2-0.4-0.2c-0.2,0-0.4,0.2-0.5,0.4
	c0,0.1,0,0.2,0.1,0.2l1.4,1.8l-1.5,1.9c-0.1,0.1-0.1,0.2-0.1,0.2c0,0.2,0.2,0.4,0.4,0.4c0,0,0,0,0,0c0.1,0,0.3-0.1,0.4-0.2l1.4-1.8
	l1.4,1.8c0.1,0.1,0.2,0.2,0.4,0.2C116.8,35,117,34.8,117,34.5L117,34.5z"/>
</svg>
